<?xml version="1.0" encoding="UTF-8"?>
<svg width="1024" height="1024" version="1.1" viewBox="0 0 1024 1024" xml:space="preserve" xmlns="http://www.w3.org/2000/svg" xmlns:xlink="http://www.w3.org/1999/xlink"><defs><linearGradient id="c" x1="512" x2="512" y1="1024" gradientUnits="userSpaceOnUse"><stop stop-color="#ffb2d2" offset="0"/><stop stop-color="#ffbc8a" offset=".48476"/><stop stop-color="#ffed89" offset="1"/></linearGradient><linearGradient id="b" x1="512" x2="512" y1="67" y2="957" gradientTransform="matrix(.89888 0 0 .90003 51.775 51.187)" gradientUnits="userSpaceOnUse"><stop stop-color="#3a3a3a" offset="0"/><stop offset="1"/></linearGradient><mask id="a" maskUnits="userSpaceOnUse"><path d="m1024 320.32c0-12.229 0-24.46-0.068-36.689-0.064-10.303-0.1824-20.603-0.4608-30.903-0.6059-22.433-1.9285-45.063-5.9136-67.249-4.047-22.526-10.655-43.493-21.075-63.959-10.235-20.104-23.604-38.497-39.554-54.449-15.952-15.952-34.35-29.324-54.457-39.559-20.456-10.414-41.412-17.019-63.925-21.066-22.194-3.9894-44.832-5.3121-67.274-5.919-10.3-0.27734-20.6-0.39681-30.902-0.45974-12.229-0.074705-24.46-0.068232-36.69-0.068232h-383.36c-12.231 0-24.46-0.0063669-36.69 0.068232-10.303 0.062926-20.603 0.1824-30.902 0.45974-22.443 0.60693-45.081 1.9296-67.274 5.919-22.514 4.047-43.469 10.652-63.925 21.066-20.107 10.235-38.505 23.607-54.457 39.559-15.95 15.951-29.321 34.345-39.556 54.449-10.419 20.466-17.027 41.433-21.074 63.959-3.9851 22.186-5.3078 44.815-5.9137 67.249-0.2784 10.3-0.39787 20.6-0.45973 30.903-0.074705 12.229-0.069293 24.46-0.069293 36.689v383.36c0 12.231-0.0053057 24.46 0.069293 36.69 0.061865 10.302 0.18133 20.602 0.45973 30.902 0.60587 22.433 1.9286 45.064 5.9137 67.249 4.047 22.527 10.655 43.493 21.074 63.96 10.235 20.103 23.606 38.497 39.556 54.447 15.952 15.953 34.35 29.325 54.457 39.559 20.456 10.414 41.41 17.019 63.925 21.067 22.193 3.9894 44.831 5.3121 67.274 5.918 10.299 0.2784 20.599 0.3968 30.902 0.4608 12.23 0.074 24.46 0.068 36.69 0.068h383.36c12.231 0 24.461 0.01 36.69-0.068 10.302-0.064 20.602-0.1824 30.902-0.4608 22.442-0.6059 45.08-1.9286 67.274-5.918 22.513-4.048 43.469-10.653 63.925-21.067 20.107-10.234 38.505-23.606 54.457-39.559 15.95-15.95 29.32-34.345 39.554-54.447 10.42-20.467 17.028-41.433 21.075-63.96 3.9852-22.185 5.3078-44.815 5.9137-67.249 0.2784-10.3 0.3968-20.6 0.4608-30.902 0.073-12.231 0.068-24.46 0.068-36.69z" fill="#fff"/></mask></defs><g><path d="m0 0h1024v1024h-1024z" clip-rule="evenodd" fill="url(#c)" mask="url(#a)" stroke-linecap="round" stroke-linejoin="round"/><path d="m504.85 112a400 400.51 0 0 0-253.29 96.183c123.67 7.7212 232.3 58.65 307.15 98.189 54.328 28.702 89.654 61.978 112.09 95.517 1.3946 2.0104 2.7412 4.0545 4.0608 6.1191 0.3646 0.58641 0.77025 1.1715 1.1271 1.7579 14.464 23.178 24.141 49.623 27.7 77.961 0.0344 0.26657 0.0687 0.53202 0.10183 0.79806 0.42217 3.4784 0.75733 6.9815 0.99191 10.514 0.0398 0.58013 0.0992 1.1685 0.13344 1.7456 0.21305 3.714 0.3476 7.4486 0.3476 11.215 0 106.71-86.685 193.51-193.26 193.51-4.0415 0-8.0436-0.16536-12.024-0.41135 77.542 39.374 182.89 83.386 298.82 84.704a400 400.51 0 0 0 100.34-180.35c-21.759 25.224-51.724 48.031-88.527 67.258-57.98 30.289-130.02 50.606-207.65 59.56-19.006-7.1572-37.186-14.823-54.415-22.668 94.381-4.482 183.17-26.129 249.59-60.831 68.757-35.919 107.09-81.964 112.97-128.27a400 400.51 0 0 0 0.8936-12.502c0-50.435-38.914-101.62-113.86-140.77-54.264-28.348-123.47-47.951-198.44-56.644-10.847-6.887-22.345-13.627-34.7-20.154-6.8874-3.6387-14.473-7.4776-21.929-11.278 26.491 1.0181 52.551 3.4124 77.972 6.9629-26.732-60.69-63.351-124.15-116.19-178.12zm37.639 0.77346c50.466 57.312 85.014 122.05 110.15 182.37 23.796 4.3957 46.829 9.9256 68.848 16.519 1.0954-48.494-2.9079-99.358-15.994-150.08a400 400.51 0 0 0-163-48.805zm195.16 68.629c9.5718 47.513 12.216 94.481 10.718 139.06 22.081 7.8193 42.957 16.758 62.242 26.832 8.6092 4.4975 16.77 9.2261 24.623 14.098 7.4382-18.068 13.939-36.8 19.31-56.157a400 400.51 0 0 0-116.89-123.83zm-512.45 52.799a400 400.51 0 0 0-100.34 180.35c21.759-25.224 51.724-48.031 88.527-67.258 57.98-30.289 130.02-50.606 207.65-59.56 19.006 7.1572 37.186 14.823 54.415 22.668-94.381 4.482-183.17 26.129-249.59 60.831-68.757 35.919-107.09 81.964-112.97 128.27a400 400.51 0 0 0-0.89361 12.502 400 400.51 0 0 0 0.89361 12.502c5.8782 46.304 44.21 92.349 112.97 128.27 54.264 28.348 123.47 47.951 198.44 56.644 10.847 6.887 22.345 13.627 34.7 20.154 6.8874 3.6387 14.473 7.4776 21.929 11.278-26.492-1.0182-52.553-3.4138-77.976-6.9647 26.732 60.69 63.354 124.16 116.19 178.12a400 400.51 0 0 0 253.29-96.183c-123.67-7.7212-232.3-58.65-307.15-98.189-54.328-28.702-89.654-61.978-112.09-95.517-1.3946-2.0104-2.7412-4.0545-4.0608-6.1191-0.3646-0.58641-0.77025-1.1715-1.1271-1.7579-14.464-23.178-24.141-49.623-27.7-77.961-0.0344-0.26657-0.0687-0.53202-0.10183-0.79806-0.42217-3.4784-0.75733-6.9815-0.99191-10.514-0.0398-0.58013-0.0992-1.1685-0.13344-1.7456-0.21305-3.714-0.3476-7.4486-0.3476-11.215 0-106.71 86.685-193.51 193.26-193.51 4.0415 0 8.0436 0.16536 12.024 0.41135-77.542-39.374-182.89-83.386-298.82-84.704zm647.32 104.41c-4.4261 13.044-9.2736 25.799-14.53 38.225 16.578 12.305 30.621 25.604 42.41 39.557a400 400.51 0 0 0-27.881-77.782zm-360.52 6.882c-89.125 0-161.63 69.811-166.08 157.92-0.14341 2.8423-0.21595 5.7032-0.21595 8.5819 0 3.6809 0.18359 7.4935 0.42486 11.336 0.0946 1.4137 0.19013 2.8275 0.31952 4.2312 0.24869 2.8492 0.61583 5.7545 1.0218 8.6768 0.42018 2.8966 0.90816 5.7696 1.4747 8.6153 0.11074 0.57504 0.24238 1.156 0.35991 1.7332 6.8975 32.815 23.416 62.019 46.473 84.566l0.0333-0.0351c22.472 21.977 51.071 37.617 83.051 44.08 0.10743 0.0216 0.21727 0.0366 0.32479 0.058 5.2416 1.0484 10.571 1.8584 15.981 2.4012 0.0791 9e-3 0.15976 9e-3 0.23876 0.0175 5.4549 0.53953 10.987 0.82456 16.589 0.82456 92 0 166.29-74.387 166.29-166.5 0-3.6809-0.18357-7.4937-0.42486-11.336-0.0946-1.4137-0.19013-2.8275-0.31952-4.2312-0.24869-2.8492-0.61583-5.7545-1.0218-8.6768-0.42018-2.8966-0.90816-5.7696-1.4747-8.6153-0.11073-0.57504-0.24238-1.156-0.35991-1.7332-6.8975-32.815-23.416-62.019-46.473-84.566l-0.0333 0.0351c-18.742-18.329-41.745-32.253-67.417-40.12-4e-3 -9e-4 -8e-3 -3e-3 -0.0105-4e-3 -5.1061-1.5643-10.319-2.8849-15.623-3.957-0.10743-0.0217-0.21727-0.0367-0.32479-0.0581-5.2416-1.0484-10.571-1.8584-15.981-2.4012-0.0791-9e-3 -0.15966-9e-3 -0.23876-0.0175-5.4549-0.53913-10.987-0.82416-16.589-0.82416zm-387.25 263.44a400 400.51 0 0 0 26.917 75.892c4.3763-12.851 9.1632-25.42 14.345-37.669-16.047-11.911-29.694-24.762-41.262-38.223zm64.008 53.666c-7.328 17.803-13.718 36.265-19.045 55.318a400 400.51 0 0 0 116.47 123.84c-9.435-47.228-12.045-93.909-10.557-138.22-22.08-7.8188-42.954-16.757-62.237-26.83-8.6119-4.4989-16.775-9.2297-24.63-14.103zm113.76 49.735c-1.0868 48.11 2.86 98.554 15.699 148.88a400 400.51 0 0 0 162.41 49.048c-50.001-57.072-84.275-121.43-109.26-181.41-23.796-4.3957-46.829-9.9239-68.848-16.517z" fill="url(#b)" stroke-width=".89945"/><ellipse cx="565.93" cy="458" rx="53.933" ry="54.002" fill="#fff"/><ellipse cx="465.26" cy="393.2" rx="22.472" ry="22.501" fill="#fff"/></g><g display="none"><circle cx="512" cy="512" r="400" display="inline" fill="#ff0505" fill-opacity=".37684"/><rect x="112" y="112" width="800" height="800" display="inline" fill="#ff0505" fill-opacity=".37684"/><path d="m0 0 1024 1024h-1024l1024-1024h-512v1024h-512v-512h1024v-512" display="none" fill="none" stroke="#dc6a6a" stroke-width="2"/></g></svg>
