<?xml version="1.0" encoding="UTF-8" standalone="no"?>
<svg
   width="1024"
   height="1024"
   version="1.1"
   viewBox="0 0 1024 1024"
   xml:space="preserve"
   id="svg16"
   sodipodi:docname="RO.squircle.svg"
   inkscape:version="1.3 (0e150ed6c4, 2023-07-21)"
   xmlns:inkscape="http://www.inkscape.org/namespaces/inkscape"
   xmlns:sodipodi="http://sodipodi.sourceforge.net/DTD/sodipodi-0.dtd"
   xmlns="http://www.w3.org/2000/svg"
   xmlns:svg="http://www.w3.org/2000/svg"><sodipodi:namedview
     id="namedview16"
     pagecolor="#ffffff"
     bordercolor="#000000"
     borderopacity="0.25"
     inkscape:showpageshadow="2"
     inkscape:pageopacity="0.0"
     inkscape:pagecheckerboard="0"
     inkscape:deskcolor="#d1d1d1"
     inkscape:zoom="1.7939453"
     inkscape:cx="512"
     inkscape:cy="512"
     inkscape:window-width="3840"
     inkscape:window-height="2054"
     inkscape:window-x="-11"
     inkscape:window-y="-11"
     inkscape:window-maximized="1"
     inkscape:current-layer="svg16" /><defs
     id="defs4"><linearGradient
       id="b"
       x1="1633.3"
       x2="1776.8"
       y1="872.53"
       y2="-36.732"
       gradientTransform="translate(-1139 101.44)"
       gradientUnits="userSpaceOnUse"><stop
         stop-color="#12374f"
         offset="0"
         id="stop1" /><stop
         stop-color="#557c96"
         offset="1"
         id="stop2" /></linearGradient><filter
       id="c"
       x="-0.043689589"
       y="-0.043689478"
       width="1.0995152"
       height="1.1116509"
       color-interpolation-filters="sRGB"><feFlood
         flood-color="rgb(0,0,0)"
         flood-opacity=".25263"
         in="SourceGraphic"
         result="flood"
         id="feFlood2" /><feGaussianBlur
         in="SourceGraphic"
         result="blur"
         stdDeviation="15.000000"
         id="feGaussianBlur2" /><feOffset
         dx="10.000000"
         dy="20.000000"
         in="blur"
         result="offset"
         id="feOffset2" /><feComposite
         in="flood"
         in2="offset"
         operator="in"
         result="comp1"
         id="feComposite2" /><feComposite
         in="SourceGraphic"
         in2="comp1"
         result="comp2"
         id="feComposite3" /></filter><linearGradient
       id="a"
       x1="287"
       x2="815.31"
       y1="299.5"
       y2="821.87"
       gradientUnits="userSpaceOnUse"><stop
         stop-color="#f8f8f8"
         offset="0"
         id="stop3" /><stop
         stop-color="#f3f9ff"
         offset="1"
         id="stop4" /></linearGradient></defs><g
     id="g16"><path
       d="m321.32 6.3518e-5c-12.166 0-24.337-6e-3 -36.516 0.0683-10.259 0.0627-20.526 0.18234-30.799 0.45897-22.382 0.6053-45.035 1.9235-67.322 5.9297-22.61 4.0642-43.73 10.715-64.328 21.201-20.252 10.309-38.779 23.777-54.846 39.844-16.064 16.065-29.533 34.589-39.842 54.838-10.492 20.609-17.147 41.741-21.211 64.363-4.0019 22.279-5.3176 44.924-5.9219 67.297-0.2776 10.274-0.3993 20.539-0.4609 30.799-0.074 12.177-0.068 24.349-0.068 36.514v381.37c0 12.166-0.01 24.339 0.068 36.518 0.062 10.258 0.1833 20.521 0.4609 30.795 0.6043 22.373 1.92 45.021 5.9219 67.299 4.0642 22.623 10.719 43.753 21.211 64.363 10.309 20.248 23.778 38.774 39.842 54.838 16.066 16.068 34.593 29.534 54.846 39.842 20.598 10.487 41.718 17.142 64.328 21.207 22.287 4.0061 44.94 5.3234 67.322 5.9277 10.273 0.2777 20.538 0.3952 30.797 0.459 12.178 0.073 24.349 0.066 36.516 0.066h381.37c12.166 0 24.338 0.01 36.516-0.066 10.258-0.064 20.523-0.1813 30.797-0.459 22.382-0.6043 45.034-1.9216 67.322-5.9277 22.609-4.0653 43.73-10.72 64.328-21.207 20.252-10.308 38.781-23.774 54.848-39.842 16.064-16.064 29.529-34.59 39.838-54.838 10.493-20.61 17.149-41.74 21.213-64.363 4.0019-22.278 5.3196-44.926 5.9238-67.299 0.2777-10.274 0.3953-20.537 0.459-30.795 0.073-12.178 0.068-24.351 0.068-36.518v-381.37c-4e-4 -12.165 0-24.336-0.069-36.514v-2e-3c-0.064-10.259-0.1813-20.523-0.459-30.797-0.6042-22.373-1.9219-45.018-5.9238-67.297-4.0642-22.622-10.72-43.754-21.213-64.363-10.309-20.249-23.774-38.773-39.838-54.838-16.066-16.066-34.596-29.535-54.848-39.844-20.598-10.487-41.719-17.137-64.328-21.201-22.288-4.0062-44.941-5.3244-67.322-5.9297-10.274-0.27663-20.539-0.39631-30.797-0.45897-12.178-0.0744-24.351-0.0683-36.518-0.0683z"
       color="#000000"
       fill="url(#b)"
       style="-inkscape-stroke:none"
       id="path12" /><g
       id="g15"><path
         d="m321.32 100c-12.191 0-24.057-0.0059-35.906 0.0664-9.9115 0.0606-19.397 0.17286-28.717 0.42382-20.539 0.55572-36.911 1.6184-52.322 4.3887-14.086 2.5319-26.035 6.4901-36.65 11.895-10.868 5.532-20.844 12.78-29.504 21.439-8.6617 8.6622-15.91 18.639-21.438 29.496-5.4099 10.627-9.3712 22.589-11.902 36.678-2.7673 15.406-3.828 31.773-4.3828 52.312-0.25207 9.3288-0.36638 18.806-0.42578 28.699-0.07206 11.857-0.0664 23.726-0.0664 35.914v381.37c0 12.206-0.0093 24.058 0.0664 35.877v0.0371c0.0598 9.8971 0.17379 19.371 0.42578 28.697 0.5548 20.54 1.6154 36.914 4.3828 52.32 2.5307 14.087 6.4919 26.044 11.904 36.676 5.5268 10.856 12.777 20.835 21.436 29.494 8.6583 8.6588 18.631 15.902 29.494 21.432l6e-3 2e-3 4e-3 4e-3c10.627 5.4102 22.58 9.3698 36.654 11.9 15.408 2.7697 31.781 3.832 52.326 4.3867 9.2968 0.25131 18.773 0.36203 28.697 0.42383h0.0215c11.845 0.07078 23.708 0.06433 35.894 0.06433h381.37c12.206 0 24.065 9e-3 35.891-0.0644 9.9337-0.062 19.42-0.17244 28.721-0.42383 20.547-0.55477 36.917-1.616 52.332-4.3867 14.068-2.5295 26.024-6.4907 36.65-11.9l6e-3 -4e-3 4e-3 -2e-3c10.866-5.5304 20.841-12.776 29.494-21.43 8.6554-8.6554 15.902-18.631 21.436-29.5 5.4129-10.632 9.3739-22.589 11.904-36.674 2.7681-15.41 3.8302-31.783 4.3848-52.316 0.25133-9.2981 0.36214-18.774 0.42383-28.695 0.0711-11.86 0.0664-23.733 0.0664-35.918v-381.37c-4e-4 -12.149 6.5e-4 -24.021-0.0664-35.893-1.2e-4 -0.0189 1.2e-4 -0.0358 0-0.0547-0.062-9.9139-0.17291-19.381-0.42383-28.664-0.55459-20.536-1.616-36.904-4.3848-52.318-2.5301-14.083-6.4936-26.043-11.904-36.67-5.5337-10.87-12.777-20.843-21.436-29.502-8.6546-8.6546-18.634-15.903-29.498-21.434-10.62-5.4068-22.571-9.3665-36.656-11.898-15.412-2.7703-31.784-3.833-52.322-4.3887-9.3211-0.25098-18.806-0.36328-28.717-0.42382-11.848-0.072377-23.716-0.0664-35.906-0.0664zm-159.32 149.5h125a175 175 0 0 1 174.31 160.2 225 225 0 0 1 175.69-85.199 225 225 0 0 1 225 225 225 225 0 0 1-225 225 225 225 0 0 1-225-225 225 225 0 0 1 0.25391-3.5586 175 175 0 0 1-33.121 27.131l80.57 201.43h-297.7v-50h50v-175h50l70 175h53.852l-71.34-178.35a125 125 0 0 0 97.488-121.65 125 125 0 0 0-125-125h-125zm50 100h75a75 75 0 0 1 75 75 75 75 0 0 1-75 75h-75v-75zm425 25c-96.397 0-175 78.603-175 175s78.603 175 175 175 175-78.603 175-175-78.603-175-175-175zm0 50c68.531 0 125 56.469 125 125s-56.469 125-125 125-125-56.469-125-125 56.469-125 125-125z"
         fill="url(#a)"
         filter="url(#c)"
         id="path13" /><path
         d="m321.32 100h381.37c12.191 0 24.059-6e-3 35.906 0.0664 9.911 0.0605 19.396 0.17284 28.717 0.42382 20.538 0.55573 36.91 1.6184 52.322 4.3887 14.085 2.5319 26.036 6.4916 36.656 11.898 10.864 5.5301 20.843 12.779 29.498 21.434 8.6582 8.6588 15.902 18.632 21.436 29.502 5.4107 10.627 9.3742 22.587 11.904 36.67 2.7688 15.414 3.8302 31.782 4.3848 52.318 0.25092 9.283 0.36179 18.75 0.42383 28.664 1.2e-4 0.0189-1.2e-4 0.0358 0 0.0547 0.0671 11.872 0.066 23.743 0.0664 35.893v381.37c0 12.185 5e-3 24.058-0.0664 35.918-0.0617 9.9217-0.1725 19.397-0.42383 28.695-0.55453 20.534-1.6167 36.907-4.3848 52.316-2.5304 14.085-6.4914 26.042-11.904 36.674-5.5335 10.869-12.78 20.845-21.436 29.5-8.6533 8.6538-18.628 15.899-29.494 21.43l-4e-3 2e-3 -6e-3 4e-3c-10.626 5.4097-22.582 9.3709-36.65 11.9-15.415 2.7707-31.785 3.832-52.332 4.3867-9.3005 0.25139-18.787 0.36185-28.721 0.42383-11.826 0.07366-23.685 0.06431-35.89 0.06431h-381.37c-12.186 0-24.05 6e-3 -35.895-0.0644h-0.0215c-9.9241-0.0618-19.4-0.17252-28.697-0.42383-20.545-0.55469-36.918-1.6171-52.326-4.3867-14.074-2.5306-26.027-6.4902-36.654-11.9l-4e-3 -4e-3 -6e-3 -2e-3c-10.864-5.5292-20.836-12.773-29.494-21.432-8.6589-8.6589-15.909-18.639-21.436-29.494-5.4124-10.632-9.3736-22.589-11.904-36.676-2.7674-15.406-3.828-31.78-4.3828-52.32-0.25199-9.3259-0.36596-18.8-0.42578-28.697v-0.0371c-0.0757-11.819-0.0664-23.671-0.0664-35.877v-381.37c0-12.188-0.0056-24.057 0.0664-35.914 0.0594-9.8934 0.17371-19.37 0.42578-28.699 0.55477-20.539 1.6155-36.906 4.3828-52.312 2.5311-14.089 6.4924-26.051 11.902-36.678 5.5274-10.857 12.776-20.834 21.438-29.496 8.6595-8.6595 18.636-15.907 29.504-21.439 10.616-5.4045 22.565-9.3626 36.65-11.895 15.412-2.7703 31.783-3.833 52.322-4.3887 9.3193-0.25096 18.805-0.36325 28.717-0.42382 11.85-0.072295 23.716-0.06641 35.907-0.06641z"
         display="none"
         fill="#fff"
         id="path14" /><path
         d="m162 249.5v50h125a125 125 0 0 1 125 125 125 125 0 0 1-97.488 121.65l71.34 178.35h-53.852l-70-175h-50v175h-50v50h297.7l-80.57-201.43a175 175 0 0 0 33.121-27.131 225 225 0 0 0-0.25391 3.5586 225 225 0 0 0 225 225 225 225 0 0 0 225-225 225 225 0 0 0-225-225 225 225 0 0 0-175.69 85.199 175 175 0 0 0-174.31-160.2zm50 100v150h75a75 75 0 0 0 75-75 75 75 0 0 0-75-75zm425 25c96.397 0 175 78.603 175 175s-78.603 175-175 175-175-78.603-175-175 78.603-175 175-175zm0 50c-68.531 0-125 56.469-125 125s56.469 125 125 125 125-56.469 125-125-56.469-125-125-125z"
         display="none"
         fill="#294f67"
         stroke-width="5"
         id="path15" /></g></g></svg>
