<?xml version="1.0" encoding="UTF-8" standalone="no"?>
<!-- Created with Inkscape (http://www.inkscape.org/) -->

<svg
   width="1024"
   height="1024"
   viewBox="0 0 1024 1024"
   version="1.1"
   id="svg5"
   inkscape:version="1.3 (0e150ed6c4, 2023-07-21)"
   sodipodi:docname="iOS App Icon Grid - Copy.svg"
   xmlns:inkscape="http://www.inkscape.org/namespaces/inkscape"
   xmlns:sodipodi="http://sodipodi.sourceforge.net/DTD/sodipodi-0.dtd"
   xmlns="http://www.w3.org/2000/svg"
   xmlns:svg="http://www.w3.org/2000/svg">
  <sodipodi:namedview
     id="namedview7"
     pagecolor="#ffffff"
     bordercolor="#666666"
     borderopacity="1.0"
     inkscape:pageshadow="2"
     inkscape:pageopacity="0.0"
     inkscape:pagecheckerboard="0"
     inkscape:document-units="px"
     showgrid="false"
     units="px"
     inkscape:zoom="1.3257375"
     inkscape:cx="417.50347"
     inkscape:cy="522.35078"
     inkscape:window-width="3840"
     inkscape:window-height="2054"
     inkscape:window-x="-11"
     inkscape:window-y="-11"
     inkscape:window-maximized="1"
     inkscape:current-layer="layer1"
     inkscape:showpageshadow="2"
     inkscape:deskcolor="#d1d1d1" />
  <defs
     id="defs2">
    <clipPath
       clipPathUnits="userSpaceOnUse"
       id="clipPath840">
      <path
         d="M 0,0 H 1920 V 1080 H 0 Z"
         id="path838" />
    </clipPath>
    <clipPath
       clipPathUnits="userSpaceOnUse"
       id="clipPath1">
      <g
         id="g2"
         transform="matrix(0.94237517,0,0,0.94237517,104.83337,-36.409743)">
        <path
           d="M -181.3704,993.57778 H 843.69898 V -31.491601 H -181.3704 Z"
           id="path1"
           style="stroke-width:1.23801" />
      </g>
    </clipPath>
    <clipPath
       clipPathUnits="userSpaceOnUse"
       id="clipPath2">
      <g
         id="g3"
         transform="matrix(0.94237517,0,0,0.94237517,-57.843822,-199.08763)">
        <path
           d="M -181.3704,993.57778 H 843.69898 V -31.491601 H -181.3704 Z"
           id="path2"
           style="stroke-width:1.23801" />
      </g>
    </clipPath>
    <clipPath
       clipPathUnits="userSpaceOnUse"
       id="clipPath3">
      <g
         id="g4"
         transform="matrix(0.94237517,0,0,0.94237517,167.92227,26.681137)">
        <path
           d="M -181.3704,993.57778 H 843.69898 V -31.491601 H -181.3704 Z"
           id="path3"
           style="stroke-width:1.23801" />
      </g>
    </clipPath>
    <clipPath
       clipPathUnits="userSpaceOnUse"
       id="clipPath4">
      <g
         id="g5"
         transform="matrix(0.94237517,0,0,0.94237517,167.92331,26.680087)">
        <path
           d="M -181.3704,993.57778 H 843.69898 V -31.491601 H -181.3704 Z"
           id="path4"
           style="stroke-width:1.23801" />
      </g>
    </clipPath>
    <clipPath
       clipPathUnits="userSpaceOnUse"
       id="clipPath5">
      <g
         id="g6"
         transform="matrix(0.94237517,0,0,0.94237517,-132.3664,-273.60962)">
        <path
           d="M -181.3704,993.57778 H 843.69898 V -31.491601 H -181.3704 Z"
           id="path5"
           style="stroke-width:1.23801" />
      </g>
    </clipPath>
    <clipPath
       clipPathUnits="userSpaceOnUse"
       id="clipPath6">
      <g
         id="g7"
         transform="matrix(0.94237517,0,0,0.94237517,167.92331,-35.315059)">
        <path
           d="M -181.3704,993.57778 H 843.69898 V -31.491601 H -181.3704 Z"
           id="path6"
           style="stroke-width:1.23801" />
      </g>
    </clipPath>
    <clipPath
       clipPathUnits="userSpaceOnUse"
       id="clipPath7">
      <g
         id="g8"
         transform="matrix(0.94237517,0,0,0.94237517,167.92331,-870.31502)">
        <path
           d="M -181.3704,993.57778 H 843.69898 V -31.491601 H -181.3704 Z"
           id="path7"
           style="stroke-width:1.23801" />
      </g>
    </clipPath>
    <clipPath
       clipPathUnits="userSpaceOnUse"
       id="clipPath8">
      <g
         id="g9"
         transform="matrix(0.94237517,0,0,0.94237517,105.91895,26.681137)">
        <path
           d="M -181.3704,993.57778 H 843.69898 V -31.491601 H -181.3704 Z"
           id="path8"
           style="stroke-width:1.23801" />
      </g>
    </clipPath>
    <clipPath
       clipPathUnits="userSpaceOnUse"
       id="clipPath9">
      <g
         id="g10"
         transform="matrix(0.94237517,0,0,0.94237517,-729.08148,26.681137)">
        <path
           d="M -181.3704,993.57778 H 843.69898 V -31.491601 H -181.3704 Z"
           id="path9"
           style="stroke-width:1.23801" />
      </g>
    </clipPath>
    <clipPath
       clipPathUnits="userSpaceOnUse"
       id="clipPath10">
      <g
         id="g11"
         transform="matrix(0.94237517,0,0,0.94237517,-311.08105,26.681137)">
        <path
           d="M -181.3704,993.57778 H 843.69898 V -31.491601 H -181.3704 Z"
           id="path10"
           style="stroke-width:1.23801" />
      </g>
    </clipPath>
    <clipPath
       clipPathUnits="userSpaceOnUse"
       id="clipPath11">
      <g
         id="g12"
         transform="matrix(0.94237517,0,0,0.94237517,167.92331,-453.31502)">
        <path
           d="M -181.3704,993.57778 H 843.69898 V -31.491601 H -181.3704 Z"
           id="path11"
           style="stroke-width:1.23801" />
      </g>
    </clipPath>
    <clipPath
       clipPathUnits="userSpaceOnUse"
       id="clipPath12">
      <g
         id="g13"
         transform="matrix(0.94237517,0,0,0.94237517,167.92331,-632.31503)">
        <path
           d="M -181.3704,993.57778 H 843.69898 V -31.491601 H -181.3704 Z"
           id="path12"
           style="stroke-width:1.23801" />
      </g>
    </clipPath>
    <clipPath
       clipPathUnits="userSpaceOnUse"
       id="clipPath13">
      <g
         id="g14"
         transform="matrix(0.94237517,0,0,0.94237517,167.92331,-273.31504)">
        <path
           d="M -181.3704,993.57778 H 843.69898 V -31.491601 H -181.3704 Z"
           id="path13"
           style="stroke-width:1.23801" />
      </g>
    </clipPath>
    <clipPath
       clipPathUnits="userSpaceOnUse"
       id="clipPath14">
      <g
         id="g15"
         transform="matrix(0.94237517,0,0,0.94237517,-491.08149,26.681137)">
        <path
           d="M -181.3704,993.57778 H 843.69898 V -31.491601 H -181.3704 Z"
           id="path14"
           style="stroke-width:1.23801" />
      </g>
    </clipPath>
    <clipPath
       clipPathUnits="userSpaceOnUse"
       id="clipPath15">
      <g
         id="g16"
         transform="matrix(0.94237517,0,0,0.94237517,-132.08103,26.681137)">
        <path
           d="M -181.3704,993.57778 H 843.69898 V -31.491601 H -181.3704 Z"
           id="path15"
           style="stroke-width:1.23801" />
      </g>
    </clipPath>
    <clipPath
       clipPathUnits="userSpaceOnUse"
       id="clipPath16">
      <g
         id="g17"
         transform="matrix(0.94237517,0,0,0.94237517,167.91923,26.676353)">
        <path
           d="M -181.3704,993.57778 H 843.69898 V -31.491601 H -181.3704 Z"
           id="path16"
           style="stroke-width:1.23801" />
      </g>
    </clipPath>
  </defs>
  <g
     inkscape:label="Layer 1"
     inkscape:groupmode="layer"
     id="layer1"
     transform="translate(180.84006,30.960565)">
    <path
       id="path18"
       style="stroke:none;stroke-opacity:1;color:#000000;fill:#000000;stroke-miterlimit:10;-inkscape-stroke:none;opacity:1"
       d="M -659.69329 -302.79721 C -671.1584 -302.79721 -682.62768 -302.80329 -694.10471 -302.73279 C -703.77284 -302.67369 -713.44825 -302.56095 -723.12876 -302.30026 C -744.22142 -301.72984 -765.56897 -300.48762 -786.57159 -296.71227 C -807.87886 -292.88227 -827.78156 -286.61507 -847.19282 -276.73281 C -866.27787 -267.01817 -883.73741 -254.32567 -898.87805 -239.18505 C -914.01653 -224.04555 -926.70931 -206.58922 -936.42397 -187.50718 C -946.31125 -168.08589 -952.58262 -148.17121 -956.41263 -126.85283 C -960.1839 -105.85745 -961.42384 -84.517682 -961.99326 -63.433921 C -962.25495 -53.752251 -962.36958 -44.078171 -962.42763 -34.40987 C -962.49773 -22.934643 -962.49205 -11.463892 -962.49205 -0.00029234301 L -962.49205 359.3962 C -962.49205 370.86146 -962.49813 382.33258 -962.42763 393.80946 C -962.36963 403.47676 -962.25495 413.14816 -961.99326 422.82983 C -961.42384 443.91359 -960.1839 465.25616 -956.41263 486.25057 C -952.58262 507.56998 -946.31121 527.4827 -936.42397 546.90493 C -926.70933 565.98591 -914.01662 583.44422 -898.87805 598.5828 C -883.73738 613.72447 -866.27794 626.41505 -847.19282 636.12872 L -847.19282 636.12688 C -827.78156 646.00915 -807.87879 652.28086 -786.57159 656.11186 C -765.56897 659.88719 -744.2215 661.12858 -723.12876 661.69801 C -713.44791 661.9597 -703.77433 662.07048 -694.10655 662.13054 L -694.10471 662.13054 C -682.62798 662.19964 -671.15854 662.19312 -659.69329 662.19312 L -300.29864 662.19312 C -288.83339 662.19312 -277.36295 662.20004 -265.88722 662.13054 L -265.88538 662.13054 C -256.21859 662.07044 -246.54501 661.9597 -236.86317 661.69801 C -215.77143 661.12858 -194.42394 659.88719 -173.42034 656.11186 C -152.11416 652.28086 -132.2104 646.00916 -112.79911 636.12688 L -112.79911 636.12872 C -93.713989 626.41505 -76.252699 613.72447 -61.11204 598.5828 C -45.973424 583.44418 -33.284406 565.98585 -23.569801 546.90493 C -13.681627 527.4826 -7.4093039 507.56998 -3.5793 486.25057 C 0.19198155 465.25616 1.4337436 443.91359 2.0031686 422.82983 C 2.264867 413.14799 2.3756494 403.47625 2.435704 393.80946 C 2.5047686 382.33273 2.5001242 370.86146 2.5001242 359.3962 L 2.5001242 -0.00029234301 C 2.5001242 -11.464543 2.504767 -22.934136 2.435704 -34.40987 L 2.435704 -34.411711 C 2.3756494 -44.079447 2.264867 -53.752078 2.0031686 -63.433921 C 1.4337435 -84.517682 0.19197333 -105.85745 -3.5793 -126.85283 C -7.4093024 -148.17121 -13.681486 -168.08584 -23.569801 -187.50718 C -33.284428 -206.58916 -45.973515 -224.04551 -61.11204 -239.18505 C -76.252672 -254.32567 -93.714061 -267.01817 -112.79911 -276.73281 C -132.2104 -286.61509 -152.11408 -292.88227 -173.42034 -296.71227 C -194.42394 -300.48761 -215.77151 -301.72984 -236.86317 -302.30026 C -246.54467 -302.56095 -256.21825 -302.67374 -265.88538 -302.73279 C -277.3614 -302.80289 -288.83353 -302.79721 -300.29864 -302.79721 L -659.69329 -302.79721 z "
       transform="matrix(1.0611485,0,0,1.0611485,840.50694,290.35225)" />
    <path
       id="path19"
       style="stroke:none;stroke-opacity:1;color:#000000;fill:#000000;stroke-miterlimit:10;-inkscape-stroke:none;opacity:1"
       d="M -659.69329 -302.79721 C -671.1584 -302.79721 -682.62768 -302.80329 -694.10471 -302.73279 C -703.77284 -302.67369 -713.44825 -302.56095 -723.12876 -302.30026 C -744.22142 -301.72984 -765.56897 -300.48762 -786.57159 -296.71227 C -807.87886 -292.88227 -827.78156 -286.61507 -847.19282 -276.73281 C -866.27787 -267.01817 -883.73741 -254.32567 -898.87805 -239.18505 C -914.01653 -224.04555 -926.70931 -206.58922 -936.42397 -187.50718 C -946.31125 -168.08589 -952.58262 -148.17121 -956.41263 -126.85283 C -960.1839 -105.85745 -961.42384 -84.517682 -961.99326 -63.433921 C -962.25495 -53.752251 -962.36958 -44.078171 -962.42763 -34.40987 C -962.49773 -22.934643 -962.49205 -11.463892 -962.49205 -0.00029234301 L -962.49205 359.3962 C -962.49205 370.86146 -962.49813 382.33258 -962.42763 393.80946 C -962.36963 403.47676 -962.25495 413.14816 -961.99326 422.82983 C -961.42384 443.91359 -960.1839 465.25616 -956.41263 486.25057 C -952.58262 507.56998 -946.31121 527.4827 -936.42397 546.90493 C -926.70933 565.98591 -914.01662 583.44422 -898.87805 598.5828 C -883.73738 613.72447 -866.27794 626.41505 -847.19282 636.12872 L -847.19282 636.12688 C -827.78156 646.00915 -807.87879 652.28086 -786.57159 656.11186 C -765.56897 659.88719 -744.2215 661.12858 -723.12876 661.69801 C -713.44791 661.9597 -703.77433 662.07048 -694.10655 662.13054 L -694.10471 662.13054 C -682.62798 662.19964 -671.15854 662.19312 -659.69329 662.19312 L -300.29864 662.19312 C -288.83339 662.19312 -277.36295 662.20004 -265.88722 662.13054 L -265.88538 662.13054 C -256.21859 662.07044 -246.54501 661.9597 -236.86317 661.69801 C -215.77143 661.12858 -194.42394 659.88719 -173.42034 656.11186 C -152.11416 652.28086 -132.2104 646.00916 -112.79911 636.12688 L -112.79911 636.12872 C -93.713989 626.41505 -76.252699 613.72447 -61.11204 598.5828 C -45.973424 583.44418 -33.284406 565.98585 -23.569801 546.90493 C -13.681627 527.4826 -7.4093039 507.56998 -3.5793 486.25057 C 0.19198155 465.25616 1.4337436 443.91359 2.0031686 422.82983 C 2.264867 413.14799 2.3756494 403.47625 2.435704 393.80946 C 2.5047686 382.33273 2.5001242 370.86146 2.5001242 359.3962 L 2.5001242 -0.00029234301 C 2.5001242 -11.464543 2.504767 -22.934136 2.435704 -34.40987 L 2.435704 -34.411711 C 2.3756494 -44.079447 2.264867 -53.752078 2.0031686 -63.433921 C 1.4337435 -84.517682 0.19197333 -105.85745 -3.5793 -126.85283 C -7.4093024 -148.17121 -13.681486 -168.08584 -23.569801 -187.50718 C -33.284428 -206.58916 -45.973515 -224.04551 -61.11204 -239.18505 C -76.252672 -254.32567 -93.714061 -267.01817 -112.79911 -276.73281 C -132.2104 -286.61509 -152.11408 -292.88227 -173.42034 -296.71227 C -194.42394 -300.48761 -215.77151 -301.72984 -236.86317 -302.30026 C -246.54467 -302.56095 -256.21825 -302.67374 -265.88538 -302.73279 C -277.3614 -302.80289 -288.83353 -302.79721 -300.29864 -302.79721 L -659.69329 -302.79721 z "
       transform="matrix(1.0611485,0,0,1.0611485,840.50694,290.35225)" />
  </g>
</svg>
