<?xml version="1.0" encoding="UTF-8" standalone="no"?>
<!-- Created with Inkscape (http://www.inkscape.org/) -->

<svg
   width="800"
   height="800"
   viewBox="0 0 800 800"
   version="1.1"
   id="svg1"
   inkscape:version="1.3 (0e150ed6c4, 2023-07-21)"
   sodipodi:docname="RO.mask.svg"
   xml:space="preserve"
   xmlns:inkscape="http://www.inkscape.org/namespaces/inkscape"
   xmlns:sodipodi="http://sodipodi.sourceforge.net/DTD/sodipodi-0.dtd"
   xmlns="http://www.w3.org/2000/svg"
   xmlns:svg="http://www.w3.org/2000/svg"><sodipodi:namedview
     id="namedview1"
     pagecolor="#ffffff"
     bordercolor="#000000"
     borderopacity="0.25"
     inkscape:showpageshadow="2"
     inkscape:pageopacity="0.0"
     inkscape:pagecheckerboard="0"
     inkscape:deskcolor="#d1d1d1"
     inkscape:document-units="px"
     inkscape:zoom="1.6364969"
     inkscape:cx="242.89689"
     inkscape:cy="650.16927"
     inkscape:window-width="1916"
     inkscape:window-height="2041"
     inkscape:window-x="1096"
     inkscape:window-y="0"
     inkscape:window-maximized="0"
     inkscape:current-layer="g7" /><defs
     id="defs1" /><g
     inkscape:groupmode="layer"
     id="g7"
     inkscape:label="Merged"
     style="display:inline"
     transform="translate(-112,-112)"><path
       id="path26"
       style="display:inline;fill:#000000;fill-opacity:1;stroke-width:5"
       inkscape:label="Merged"
       d="m 162,249.5 v 50 h 50 50 25 a 125,125 0 0 1 125,125 125,125 0 0 1 -97.48828,121.65039 L 385.85156,724.5 H 332 l -70,-175 h -50 v 175 h -50 v 50 h 243.85156 53.85156 L 379.13281,573.07227 A 175,175 0 0 0 412.25391,545.94141 225,225 0 0 0 412,549.5 225,225 0 0 0 637,774.5 225,225 0 0 0 862,549.5 225,225 0 0 0 637,324.5 225,225 0 0 0 461.31055,409.69922 175,175 0 0 0 287,249.5 Z m 50,100 v 75 75 h 75 a 75,75 0 0 0 75,-75 75,75 0 0 0 -75,-75 z m 425,25 c 96.39695,0 175,78.60305 175,175 0,96.39695 -78.60305,175 -175,175 -96.39695,0 -175,-78.60305 -175,-175 0,-96.39695 78.60305,-175 175,-175 z m 0,50 c -68.53066,0 -125,56.46934 -125,125 0,68.53066 56.46934,125 125,125 68.53066,0 125,-56.46934 125,-125 0,-68.53066 -56.46934,-125 -125,-125 z" /></g></svg>
