<?xml version="1.0" encoding="UTF-8" standalone="no"?>
<!-- Created with Inkscape (http://www.inkscape.org/) -->

<svg
   width="570"
   height="345"
   viewBox="0 0 570.00001 345.00001"
   version="1.1"
   id="svg5"
   sodipodi:docname="linear_gamma_comparison_linear_scale.svg"
   inkscape:version="1.1.1 (c3084ef, 2021-09-22)"
   xmlns:inkscape="http://www.inkscape.org/namespaces/inkscape"
   xmlns:sodipodi="http://sodipodi.sourceforge.net/DTD/sodipodi-0.dtd"
   xmlns="http://www.w3.org/2000/svg"
   xmlns:svg="http://www.w3.org/2000/svg">
  <sodipodi:namedview
     id="namedview7"
     pagecolor="#ffffff"
     bordercolor="#666666"
     borderopacity="1.0"
     inkscape:pageshadow="2"
     inkscape:pageopacity="0.0"
     inkscape:pagecheckerboard="0"
     inkscape:document-units="px"
     showgrid="false"
     units="px"
     showguides="false"
     inkscape:zoom="2.05"
     inkscape:cx="327.56098"
     inkscape:cy="189.26829"
     inkscape:window-width="2560"
     inkscape:window-height="1387"
     inkscape:window-x="0"
     inkscape:window-y="25"
     inkscape:window-maximized="0"
     inkscape:current-layer="layer1"
     width="570px" />
  <defs
     id="defs2" />
   <defs>
      <style>
         svg {
            color-scheme: light dark;
          }
          .fill-foreground {
             fill: #000;
          }
          @media (prefers-color-scheme:dark) {
            .fill-foreground {
                fill: #FFF;
            }
          }
      </style>
   </defs>
  <g
     inkscape:label="Layer 1"
     inkscape:groupmode="layer"
     id="layer1"
     transform="translate(109.99999,30)">
    <rect
       style="opacity:1;fill:#000000;fill-opacity:1;stroke-width:4.365;stroke-linecap:round;stroke-linejoin:round"
       id="rect1230"
       width="49.999981"
       x="-3.6194924e-05"
       y="4.9999981"
       height="150" />
    <rect
       style="fill:#636363;fill-opacity:1;stroke-width:4.365;stroke-linecap:round;stroke-linejoin:round"
       id="rect1230-4"
       width="49.999981"
       x="49.999947"
       y="4.9999981"
       height="150" />
    <rect
       style="fill:#898989;fill-opacity:1;stroke-width:4.365;stroke-linecap:round;stroke-linejoin:round"
       id="rect1230-1"
       width="49.999981"
       x="99.999924"
       y="4.9999981"
       height="150" />
    <rect
       style="fill:#a5a5a5;fill-opacity:1;stroke-width:4.365;stroke-linecap:round;stroke-linejoin:round"
       id="rect1230-4-3"
       width="49.999981"
       x="149.99991"
       y="4.9999981"
       height="150" />
    <rect
       style="fill:#bcbcbc;fill-opacity:1;stroke-width:4.365;stroke-linecap:round;stroke-linejoin:round"
       id="rect1230-1-7"
       width="49.999981"
       x="199.99989"
       y="4.9999981"
       height="150" />
    <rect
       style="fill:#000000;fill-opacity:1;stroke-width:4.365;stroke-linecap:round;stroke-linejoin:round"
       id="rect1230-4-3-8"
       width="49.999981"
       x="249.99988"
       y="4.9999981"
       height="150" />
    <rect
       style="fill:#e1e1e1;fill-opacity:1;stroke-width:4.365;stroke-linecap:round;stroke-linejoin:round"
       id="rect1586"
       width="49.999981"
       x="299.99985"
       y="4.9999981"
       height="150" />
    <rect
       style="fill:#d0d0d0;fill-opacity:1;stroke-width:4.365;stroke-linecap:round;stroke-linejoin:round"
       id="rect1588"
       width="49.999981"
       x="249.99988"
       y="4.9999981"
       height="150" />
    <rect
       style="fill:#ffffff;fill-opacity:1;stroke-width:4.365;stroke-linecap:round;stroke-linejoin:round"
       id="rect1586-5"
       width="49.999981"
       x="399.99982"
       y="4.9999981"
       height="150" />
    <rect
       style="fill:#f1f1f1;fill-opacity:1;stroke-width:4.365;stroke-linecap:round;stroke-linejoin:round"
       id="rect1588-3"
       width="49.999981"
       x="349.99985"
       y="4.9999981"
       height="150" />
    <rect
       style="fill:#000000;fill-opacity:1;stroke-width:4.365;stroke-linecap:round;stroke-linejoin:round"
       id="rect1230-7"
       width="49.999981"
       x="-3.6194924e-05"
       y="155"
       height="150" />
    <rect
       style="fill:#202020;fill-opacity:1;stroke-width:4.365;stroke-linecap:round;stroke-linejoin:round"
       id="rect1230-4-6"
       width="49.999981"
       x="49.999947"
       y="155"
       height="150" />
    <rect
       style="fill:#404040;fill-opacity:1;stroke-width:4.365;stroke-linecap:round;stroke-linejoin:round"
       id="rect1230-1-0"
       width="49.999981"
       x="99.999924"
       y="155"
       height="150" />
    <rect
       style="fill:#606060;fill-opacity:1;stroke-width:4.365;stroke-linecap:round;stroke-linejoin:round"
       id="rect1230-4-3-0"
       width="49.999981"
       x="149.99991"
       y="155"
       height="150" />
    <rect
       style="fill:#808080;fill-opacity:1;stroke-width:4.365;stroke-linecap:round;stroke-linejoin:round"
       id="rect1230-1-7-9"
       width="49.999981"
       x="199.99989"
       y="155"
       height="150" />
    <rect
       style="fill:#000000;fill-opacity:1;stroke-width:4.365;stroke-linecap:round;stroke-linejoin:round"
       id="rect1230-4-3-8-5"
       width="49.999981"
       x="249.99988"
       y="155"
       height="150" />
    <rect
       style="fill:#c0c0c0;fill-opacity:1;stroke-width:4.365;stroke-linecap:round;stroke-linejoin:round"
       id="rect1586-6"
       width="49.999981"
       x="299.99985"
       y="155"
       height="150" />
    <rect
       style="fill:#a0a0a0;fill-opacity:1;stroke-width:4.365;stroke-linecap:round;stroke-linejoin:round"
       id="rect1588-2"
       width="49.999981"
       x="249.99988"
       y="155"
       height="150" />
    <rect
       style="fill:#ffffff;fill-opacity:1;stroke-width:4.365;stroke-linecap:round;stroke-linejoin:round"
       id="rect1586-5-8"
       width="49.999981"
       x="399.99982"
       y="155"
       height="150" />
    <rect
       style="fill:#e0e0e0;fill-opacity:1;stroke-width:4.365;stroke-linecap:round;stroke-linejoin:round"
       id="rect1588-3-5"
       width="49.999981"
       x="349.99985"
       y="155"
       height="150" />
    <g
       class="fill-foreground"
       aria-label="Linear"
       id="text4562"
       style="font-size:24px;line-height:1.25;stroke-width:0.5"
       transform="translate(-3.6194923e-5,4.999998)">
      <path
         d="M -77.184265,77.698288 H -88.223328 V 60.249069 h 2.320313 v 15.386719 h 8.71875 z"
         id="path66716" />
      <path
         d="m -72.672546,62.417038 h -2.484375 v -2.285156 h 2.484375 z m -0.140625,15.28125 h -2.203125 V 64.608444 h 2.203125 z"
         id="path66718" />
      <path
         d="m -57.485046,77.698288 h -2.203125 v -7.453125 q 0,-0.902344 -0.105469,-1.6875 -0.105469,-0.796875 -0.386719,-1.242188 -0.292969,-0.492187 -0.84375,-0.726562 -0.550781,-0.246094 -1.429687,-0.246094 -0.902344,0 -1.886719,0.445313 -0.984375,0.445312 -1.886719,1.136718 v 9.773438 h -2.203125 V 64.608444 h 2.203125 v 1.453125 q 1.03125,-0.855469 2.132813,-1.335937 1.101562,-0.480469 2.261718,-0.480469 2.121094,0 3.234375,1.277344 1.113282,1.277343 1.113282,3.679687 z"
         id="path66720" />
      <path
         d="m -42.285828,71.381882 h -9.644531 q 0,1.207031 0.363281,2.109375 0.363282,0.890625 0.996094,1.464843 0.609375,0.5625 1.441406,0.84375 0.84375,0.28125 1.851563,0.28125 1.335937,0 2.683594,-0.527343 1.359375,-0.539063 1.933593,-1.054688 h 0.117188 v 2.402344 q -1.113281,0.46875 -2.273438,0.785156 -1.160156,0.316406 -2.4375,0.316406 -3.257812,0 -5.085937,-1.757812 -1.828125,-1.769531 -1.828125,-5.015625 0,-3.210938 1.746094,-5.097656 1.757812,-1.886719 4.617187,-1.886719 2.648438,0 4.078125,1.546875 1.441406,1.546875 1.441406,4.394531 z m -2.144531,-1.6875 q -0.01172,-1.734375 -0.878906,-2.683594 -0.855469,-0.949219 -2.613281,-0.949219 -1.769532,0 -2.824219,1.042969 -1.042969,1.042969 -1.183594,2.589844 z"
         id="path66722" />
      <path
         d="m -28.774109,77.698288 h -2.191406 v -1.394531 q -0.292969,0.199218 -0.796875,0.5625 -0.492188,0.351562 -0.960938,0.5625 -0.550781,0.269531 -1.265625,0.445312 -0.714843,0.1875 -1.675781,0.1875 -1.769531,0 -3,-1.171875 -1.230469,-1.171875 -1.230469,-2.988281 0,-1.488281 0.632813,-2.402344 0.644531,-0.925781 1.828125,-1.453125 1.195312,-0.527344 2.871094,-0.714844 1.675781,-0.1875 3.597656,-0.28125 v -0.339843 q 0,-0.75 -0.269531,-1.242188 -0.257813,-0.492187 -0.75,-0.773437 -0.46875,-0.269532 -1.125,-0.363282 -0.65625,-0.09375 -1.371094,-0.09375 -0.867188,0 -1.933594,0.234375 -1.066406,0.222657 -2.203125,0.65625 h -0.117187 v -2.238281 q 0.644531,-0.175781 1.863281,-0.386719 1.21875,-0.210937 2.402344,-0.210937 1.382812,0 2.402343,0.234375 1.03125,0.222656 1.78125,0.773437 0.738282,0.539063 1.125,1.394532 0.386719,0.855468 0.386719,2.121093 z m -2.191406,-3.222656 V 70.8311 q -1.007813,0.05859 -2.378906,0.175782 -1.359375,0.117187 -2.15625,0.339843 -0.949219,0.269532 -1.535157,0.84375 -0.585937,0.5625 -0.585937,1.558594 0,1.125 0.679687,1.699219 0.679688,0.5625 2.074219,0.5625 1.160156,0 2.121094,-0.445313 0.960937,-0.457031 1.78125,-1.089843 z"
         id="path66724" />
      <path
         d="m -16.340515,67.010788 h -0.117188 q -0.492187,-0.117188 -0.960937,-0.164063 -0.457031,-0.05859 -1.089844,-0.05859 -1.019531,0 -1.96875,0.457031 -0.949219,0.445312 -1.828125,1.160156 v 9.292969 h -2.203125 V 64.608444 h 2.203125 v 1.933594 q 1.3125,-1.054688 2.308594,-1.488281 1.007812,-0.445313 2.050781,-0.445313 0.574219,0 0.832031,0.03516 0.257813,0.02344 0.773438,0.105469 z"
         id="path66726" />
    </g>
    <g
       class="fill-foreground"
       aria-label="0"
       id="text4562-9"
       style="font-size:24px;line-height:1.25;stroke-width:0.5"
       transform="translate(-3.6194923e-5,4.999998)">
      <path
         d="m 31.035156,-15.888672 q 0,4.699219 -1.476562,6.9023439 Q 28.09375,-6.7949219 25,-6.7949219 q -3.140625,0 -4.59375,-2.2265625 -1.441406,-2.2265626 -1.441406,-6.8437496 0,-4.652344 1.464843,-6.867188 1.464844,-2.226562 4.570313,-2.226562 3.140625,0 4.582031,2.261718 1.453125,2.25 1.453125,6.808594 z m -3.082031,5.320313 q 0.410156,-0.949219 0.550781,-2.226563 0.152344,-1.289062 0.152344,-3.09375 0,-1.78125 -0.152344,-3.09375 -0.140625,-1.3125 -0.5625,-2.226562 -0.410156,-0.902344 -1.125,-1.359375 Q 26.113281,-23.025391 25,-23.025391 q -1.101563,0 -1.828125,0.457032 -0.714844,0.457031 -1.136719,1.382812 -0.398437,0.867188 -0.550781,2.261719 -0.140625,1.394531 -0.140625,3.058594 0,1.828125 0.128906,3.058593 0.128906,1.230469 0.550781,2.203125 0.386719,0.9140629 1.089844,1.3945316 0.714844,0.4804688 1.886719,0.4804688 1.101562,0 1.828125,-0.4570313 0.726562,-0.4570312 1.125,-1.3828121 z"
         id="path66663" />
    </g>
    <g
       class="fill-foreground"
       aria-label="192"
       id="text4562-9-2"
       style="font-size:24px;line-height:1.25;stroke-width:0.5"
       transform="translate(-3.6194923e-5,4.999998)">
      <path
         d="m 313.94336,-7.140625 h -9.44531 v -1.78125 h 3.63281 v -11.695312 h -3.63281 v -1.59375 q 0.73828,0 1.58203,-0.117188 0.84375,-0.128906 1.27734,-0.363281 0.53906,-0.292969 0.84375,-0.738281 0.31641,-0.457032 0.36328,-1.21875 h 1.81641 v 15.726562 h 3.5625 z"
         id="path66666" />
      <path
         d="m 330.19727,-16.914062 q 0,2.285156 -0.52735,4.148437 -0.51562,1.863281 -1.57031,3.1757812 -1.06641,1.3359375 -2.67188,2.0625001 -1.60546,0.7265625 -3.77343,0.7265625 -0.60938,0 -1.14844,-0.070312 -0.53906,-0.058594 -0.96094,-0.1992188 v -2.2382813 h 0.11719 q 0.33984,0.1757813 0.96094,0.3398438 0.62109,0.1523437 1.38281,0.1523437 2.58984,0 4.05469,-1.5468752 1.47656,-1.558594 1.71093,-4.289063 -1.08984,0.65625 -2.05078,0.9375 -0.96093,0.28125 -2.09765,0.28125 -1.07813,0 -1.95703,-0.210937 -0.86719,-0.210938 -1.7461,-0.820313 -1.03125,-0.714844 -1.55859,-1.816406 -0.51563,-1.101562 -0.51563,-2.636718 0,-2.671875 1.75782,-4.347657 1.75781,-1.675781 4.28906,-1.675781 1.26562,0 2.34375,0.398438 1.07812,0.386718 1.88672,1.171875 0.99609,0.972657 1.53515,2.507812 0.53907,1.523438 0.53907,3.949219 z m -2.36719,-0.503907 q 0,-1.816406 -0.375,-2.917968 -0.375,-1.101563 -1.03125,-1.710938 -0.55078,-0.527344 -1.1836,-0.75 -0.63281,-0.234375 -1.37109,-0.234375 -1.6875,0 -2.67187,1.054688 -0.97266,1.054687 -0.97266,2.964843 0,1.113282 0.31641,1.816407 0.3164,0.703125 1.0664,1.230468 0.52735,0.363281 1.16016,0.492188 0.63281,0.117187 1.40625,0.117187 0.91406,0 1.85156,-0.246094 0.9375,-0.246093 1.75781,-0.714843 0.0117,-0.246094 0.0234,-0.480469 0.0234,-0.246094 0.0234,-0.621094 z"
         id="path66668" />
      <path
         d="m 345.50195,-7.140625 h -11.8125 v -2.4492188 q 1.23047,-1.0546872 2.46094,-2.1093752 1.24219,-1.054687 2.30859,-2.097656 2.25,-2.179688 3.08204,-3.457031 0.83203,-1.289063 0.83203,-2.777344 0,-1.359375 -0.90235,-2.121094 -0.89062,-0.773437 -2.49609,-0.773437 -1.06641,0 -2.30859,0.375 -1.24219,0.375 -2.42579,1.148437 h -0.11718 v -2.460937 q 0.83203,-0.410156 2.21484,-0.75 1.39453,-0.339844 2.69531,-0.339844 2.6836,0 4.20703,1.300781 1.52344,1.289063 1.52344,3.503907 0,0.996093 -0.25781,1.863281 -0.24609,0.855469 -0.73828,1.628906 -0.45703,0.726562 -1.07813,1.429687 -0.60937,0.703125 -1.48828,1.558594 -1.2539,1.230469 -2.58984,2.390625 -1.33594,1.148438 -2.4961,2.1328127 h 9.38672 z"
         id="path66670" />
    </g>
    <g
       class="fill-foreground"
       aria-label="224"
       id="text4562-9-2-0"
       style="font-size:24px;line-height:1.25;stroke-width:0.5"
       transform="translate(-3.6194923e-5,4.999998)">
      <path
         d="m 365.42578,-6.9707031 h -11.8125 v -2.4492188 q 1.23047,-1.0546871 2.46094,-2.1093751 1.24219,-1.054687 2.30859,-2.097656 2.25,-2.179688 3.08203,-3.457031 0.83203,-1.289063 0.83203,-2.777344 0,-1.359375 -0.90234,-2.121094 -0.89062,-0.773437 -2.49609,-0.773437 -1.06641,0 -2.3086,0.375 -1.24218,0.375 -2.42578,1.148437 h -0.11719 v -2.460937 q 0.83204,-0.410157 2.21485,-0.75 1.39453,-0.339844 2.69531,-0.339844 2.68359,0 4.20703,1.300781 1.52344,1.289063 1.52344,3.503906 0,0.996094 -0.25781,1.863282 -0.2461,0.855468 -0.73828,1.628906 -0.45704,0.726562 -1.07813,1.429687 -0.60937,0.703125 -1.48828,1.558594 -1.25391,1.230469 -2.58984,2.390625 -1.33594,1.1484376 -2.4961,2.1328126 h 9.38672 z"
         id="path66673" />
      <path
         d="m 380.70703,-6.9707031 h -11.8125 v -2.4492188 q 1.23047,-1.0546871 2.46094,-2.1093751 1.24219,-1.054687 2.30859,-2.097656 2.25,-2.179688 3.08203,-3.457031 0.83203,-1.289063 0.83203,-2.777344 0,-1.359375 -0.90234,-2.121094 -0.89062,-0.773437 -2.49609,-0.773437 -1.06641,0 -2.3086,0.375 -1.24218,0.375 -2.42578,1.148437 h -0.11719 v -2.460937 q 0.83204,-0.410157 2.21485,-0.75 1.39453,-0.339844 2.69531,-0.339844 2.68359,0 4.20703,1.300781 1.52344,1.289063 1.52344,3.503906 0,0.996094 -0.25781,1.863282 -0.2461,0.855468 -0.73828,1.628906 -0.45704,0.726562 -1.07813,1.429687 -0.60937,0.703125 -1.48828,1.558594 -1.25391,1.230469 -2.58984,2.390625 -1.33594,1.1484376 -2.4961,2.1328126 h 9.38672 z"
         id="path66675" />
      <path
         d="m 396.38672,-11.880859 h -2.58985 v 4.9101559 h -2.25 v -4.9101559 h -8.35546 v -2.695313 l 8.44921,-9.84375 h 2.15625 v 10.664063 h 2.58985 z m -4.83985,-1.875 v -7.875 l -6.76171,7.875 z"
         id="path66677" />
    </g>
    <g
       class="fill-foreground"
       aria-label="255"
       id="text4562-9-2-0-0"
       style="font-size:24px;line-height:1.25;stroke-width:0.5"
       transform="translate(-3.6194923e-5,4.999998)">
      <path
         d="m 415.69531,-7.1523437 h -11.8125 v -2.4492188 q 1.23047,-1.0546875 2.46094,-2.1093755 1.24219,-1.054687 2.30859,-2.097656 2.25,-2.179687 3.08203,-3.457031 0.83204,-1.289062 0.83204,-2.777344 0,-1.359375 -0.90235,-2.121093 -0.89062,-0.773438 -2.49609,-0.773438 -1.06641,0 -2.3086,0.375 -1.24218,0.375 -2.42578,1.148438 h -0.11718 V -23.875 q 0.83203,-0.410156 2.21484,-0.75 1.39453,-0.339844 2.69531,-0.339844 2.6836,0 4.20703,1.300782 1.52344,1.289062 1.52344,3.503906 0,0.996094 -0.25781,1.863281 -0.2461,0.855469 -0.73828,1.628906 -0.45703,0.726563 -1.07813,1.429688 -0.60937,0.703125 -1.48828,1.558593 -1.25391,1.230469 -2.58984,2.390625 -1.33594,1.148438 -2.4961,2.132813 h 9.38672 z"
         id="path66680" />
      <path
         d="m 430.83594,-12.695313 q 0,1.21875 -0.44532,2.332032 -0.44531,1.113281 -1.21875,1.8749997 -0.84375,0.8203126 -2.01562,1.2656251 -1.16016,0.4335937 -2.69531,0.4335937 -1.42969,0 -2.75391,-0.3046875 -1.32422,-0.2929687 -2.23828,-0.7148437 V -10.28125 h 0.16406 q 0.96094,0.609375 2.25,1.0429687 1.28906,0.421875 2.53125,0.421875 0.83203,0 1.60547,-0.234375 0.78516,-0.234375 1.39453,-0.8203125 0.51563,-0.5039062 0.77344,-1.2070312 0.26953,-0.703125 0.26953,-1.628906 0,-0.902344 -0.31641,-1.523438 -0.30468,-0.621094 -0.85546,-0.996094 -0.60938,-0.445312 -1.48829,-0.621093 -0.86718,-0.1875 -1.94531,-0.1875 -1.03125,0 -1.99219,0.140625 -0.94921,0.140625 -1.64062,0.28125 v -8.988281 h 10.5 v 2.050781 h -8.23828 v 4.640625 q 0.5039,-0.04687 1.03125,-0.07031 0.52734,-0.02344 0.91406,-0.02344 1.41797,0 2.48438,0.246094 1.0664,0.234375 1.95703,0.84375 0.9375,0.644531 1.45312,1.664062 0.51563,1.019531 0.51563,2.554687 z"
         id="path66682" />
      <path
         d="m 446.11719,-12.695313 q 0,1.21875 -0.44532,2.332032 -0.44531,1.113281 -1.21875,1.8749997 -0.84375,0.8203126 -2.01562,1.2656251 -1.16016,0.4335937 -2.69531,0.4335937 -1.42969,0 -2.75391,-0.3046875 -1.32422,-0.2929687 -2.23828,-0.7148437 V -10.28125 h 0.16406 q 0.96094,0.609375 2.25,1.0429687 1.28906,0.421875 2.53125,0.421875 0.83203,0 1.60547,-0.234375 0.78516,-0.234375 1.39453,-0.8203125 0.51563,-0.5039062 0.77344,-1.2070312 0.26953,-0.703125 0.26953,-1.628906 0,-0.902344 -0.31641,-1.523438 -0.30468,-0.621094 -0.85546,-0.996094 -0.60938,-0.445312 -1.48829,-0.621093 -0.86718,-0.1875 -1.94531,-0.1875 -1.03125,0 -1.99219,0.140625 -0.94921,0.140625 -1.64062,0.28125 v -8.988281 H 446 v 2.050781 h -8.23828 v 4.640625 q 0.5039,-0.04687 1.03125,-0.07031 0.52734,-0.02344 0.91406,-0.02344 1.41797,0 2.48438,0.246094 1.0664,0.234375 1.95703,0.84375 0.9375,0.644531 1.45312,1.664062 0.51563,1.019531 0.51563,2.554687 z"
         id="path66684" />
    </g>
    <g
       class="fill-foreground"
       aria-label="160"
       id="text4562-9-2-1"
       style="font-size:24px;line-height:1.25;stroke-width:0.5"
       transform="translate(-3.6194923e-5,4.999998)">
      <path
         d="m 263.95508,-7.1582031 h -9.44531 v -1.78125 h 3.63281 V -20.634766 h -3.63281 v -1.59375 q 0.73828,0 1.58203,-0.117187 0.84375,-0.128906 1.27734,-0.363281 0.53906,-0.292969 0.84375,-0.738282 0.31641,-0.457031 0.36328,-1.21875 h 1.81641 v 15.7265629 h 3.5625 z"
         id="path66687" />
      <path
         d="m 280.49023,-12.818359 q 0,2.660156 -1.75781,4.3476559 -1.74609,1.6757812 -4.28906,1.6757812 -1.28906,0 -2.34375,-0.3984375 -1.05469,-0.3984375 -1.86328,-1.1835937 -1.00781,-0.9726563 -1.5586,-2.5781249 -0.53906,-1.605469 -0.53906,-3.867188 0,-2.320312 0.49219,-4.113281 0.50391,-1.792969 1.59375,-3.1875 1.03125,-1.324219 2.66016,-2.0625 1.6289,-0.75 3.79687,-0.75 0.69141,0 1.16016,0.05859 0.46875,0.05859 0.94922,0.210937 v 2.238282 h -0.11719 q -0.32813,-0.175782 -0.9961,-0.328125 -0.65625,-0.164063 -1.34765,-0.164063 -2.51953,0 -4.01953,1.582031 -1.5,1.570313 -1.7461,4.253907 0.98438,-0.597657 1.9336,-0.902344 0.96093,-0.316406 2.21484,-0.316406 1.11328,0 1.95703,0.210937 0.85547,0.199219 1.7461,0.820313 1.03125,0.714843 1.54687,1.804687 0.52734,1.089844 0.52734,2.648438 z m -2.3789,0.09375 q 0,-1.089844 -0.32813,-1.804688 -0.3164,-0.714844 -1.05468,-1.242187 -0.53907,-0.375 -1.19532,-0.492188 -0.65625,-0.117187 -1.37109,-0.117187 -0.99609,0 -1.85156,0.234375 -0.85547,0.234375 -1.75782,0.726562 -0.0234,0.257813 -0.0351,0.503906 -0.0117,0.234375 -0.0117,0.597657 0,1.851562 0.375,2.929687 0.38672,1.066406 1.05469,1.6875001 0.53906,0.515625 1.16015,0.7617188 0.63282,0.234375 1.3711,0.234375 1.69922,0 2.67187,-1.03125 0.97266,-1.0429689 0.97266,-2.9882809 z"
         id="path66689" />
      <path
         d="m 295.49023,-15.888672 q 0,4.699219 -1.47656,6.9023439 -1.46484,2.1914062 -4.55859,2.1914062 -3.14063,0 -4.59375,-2.2265625 -1.44141,-2.2265626 -1.44141,-6.8437496 0,-4.652344 1.46485,-6.867188 1.46484,-2.226562 4.57031,-2.226562 3.14062,0 4.58203,2.261718 1.45312,2.25 1.45312,6.808594 z m -3.08203,5.320313 q 0.41016,-0.949219 0.55078,-2.226563 0.15235,-1.289062 0.15235,-3.09375 0,-1.78125 -0.15235,-3.09375 -0.14062,-1.3125 -0.5625,-2.226562 -0.41015,-0.902344 -1.125,-1.359375 -0.70312,-0.457032 -1.8164,-0.457032 -1.10156,0 -1.82813,0.457032 -0.71484,0.457031 -1.13672,1.382812 -0.39843,0.867188 -0.55078,2.261719 -0.14062,1.394531 -0.14062,3.058594 0,1.828125 0.1289,3.058593 0.12891,1.230469 0.55079,2.203125 0.38671,0.9140629 1.08984,1.3945316 0.71484,0.4804688 1.88672,0.4804688 1.10156,0 1.82812,-0.4570313 0.72657,-0.4570312 1.125,-1.3828121 z"
         id="path66691" />
    </g>
    <g
       class="fill-foreground"
       aria-label="128"
       id="text4562-9-29"
       style="font-size:24px;line-height:1.25;stroke-width:0.5"
       transform="translate(-3.6194923e-5,4.999998)">
      <path
         d="m 213.87891,-7.1523437 h -9.44532 v -1.7812501 h 3.63282 V -20.628906 h -3.63282 v -1.59375 q 0.73828,0 1.58203,-0.117188 0.84375,-0.128906 1.27735,-0.363281 0.53906,-0.292969 0.84375,-0.738281 0.3164,-0.457031 0.36328,-1.21875 h 1.81641 v 15.7265622 h 3.5625 z"
         id="path66694" />
      <path
         d="m 230.15625,-7.1523437 h -11.8125 v -2.4492188 q 1.23047,-1.0546875 2.46094,-2.1093755 1.24218,-1.054687 2.30859,-2.097656 2.25,-2.179687 3.08203,-3.457031 0.83203,-1.289062 0.83203,-2.777344 0,-1.359375 -0.90234,-2.121093 -0.89063,-0.773438 -2.49609,-0.773438 -1.06641,0 -2.3086,0.375 -1.24219,0.375 -2.42578,1.148438 h -0.11719 V -23.875 q 0.83203,-0.410156 2.21485,-0.75 1.39453,-0.339844 2.69531,-0.339844 2.68359,0 4.20703,1.300782 1.52344,1.289062 1.52344,3.503906 0,0.996094 -0.25781,1.863281 -0.2461,0.855469 -0.73829,1.628906 -0.45703,0.726563 -1.07812,1.429688 -0.60938,0.703125 -1.48828,1.558593 -1.25391,1.230469 -2.58985,2.390625 -1.33593,1.148438 -2.49609,2.132813 h 9.38672 z"
         id="path66696" />
      <path
         d="m 245.56641,-12.015625 q 0,2.2617187 -1.76954,3.7617187 -1.75781,1.5000001 -4.42968,1.5000001 -2.83594,0 -4.52344,-1.4648438 -1.67578,-1.4648438 -1.67578,-3.75 0,-1.453125 0.84375,-2.625 0.84375,-1.183594 2.3789,-1.875 v -0.07031 q -1.40625,-0.75 -2.08593,-1.640625 -0.66797,-0.890625 -0.66797,-2.226563 0,-1.96875 1.61719,-3.28125 1.61718,-1.3125 4.11328,-1.3125 2.61328,0 4.17187,1.253906 1.5586,1.253907 1.5586,3.1875 0,1.183594 -0.73829,2.332032 -0.73828,1.136718 -2.16796,1.78125 v 0.07031 q 1.64062,0.703125 2.50781,1.734375 0.86719,1.03125 0.86719,2.625 z m -2.77735,-8.519531 q 0,-1.253906 -0.97265,-1.992188 -0.96094,-0.75 -2.46094,-0.75 -1.47656,0 -2.42578,0.703125 -0.9375,0.703125 -0.9375,1.898438 0,0.84375 0.46875,1.464844 0.48047,0.609375 1.4414,1.089843 0.4336,0.210938 1.24219,0.550782 0.82031,0.339843 1.59375,0.5625 1.16016,-0.773438 1.60547,-1.605469 0.44531,-0.832031 0.44531,-1.921875 z m 0.36328,8.742187 q 0,-1.078125 -0.48047,-1.722656 -0.46875,-0.65625 -1.85156,-1.3125 -0.55078,-0.257813 -1.20703,-0.480469 -0.65625,-0.222656 -1.74609,-0.621094 -1.05469,0.574219 -1.69922,1.558594 -0.63281,0.984375 -0.63281,2.226563 0,1.582031 1.08984,2.613281 1.08984,1.03125 2.76562,1.03125 1.71094,0 2.73047,-0.8789063 1.03125,-0.8789067 1.03125,-2.4140627 z"
         id="path66698" />
    </g>
    <g
       class="fill-foreground"
       aria-label="96" id="text4562-9-9"
       style="font-size:24px;line-height:1.25;stroke-width:0.5"
       transform="translate(-3.6194923e-5,4.999998)">
      <path
         d="m 173.39453,-16.931641 q 0,2.285157 -0.52734,4.148438 -0.51563,1.863281 -1.57032,3.1757811 -1.0664,1.3359375 -2.67187,2.0625 -1.60547,0.7265625 -3.77344,0.7265625 -0.60937,0 -1.14844,-0.070312 -0.53906,-0.058594 -0.96093,-0.1992187 v -2.2382813 h 0.11718 q 0.33985,0.1757813 0.96094,0.3398438 0.6211,0.1523437 1.38281,0.1523437 2.58985,0 4.05469,-1.5468751 1.47656,-1.558594 1.71094,-4.289063 -1.08984,0.65625 -2.05078,0.9375 -0.96094,0.28125 -2.09766,0.28125 -1.07812,0 -1.95703,-0.210937 -0.86719,-0.210938 -1.74609,-0.820313 -1.03125,-0.714844 -1.5586,-1.816406 -0.51562,-1.101562 -0.51562,-2.636718 0,-2.671875 1.75781,-4.347657 1.75781,-1.675781 4.28906,-1.675781 1.26563,0 2.34375,0.398438 1.07813,0.386718 1.88672,1.171875 0.9961,0.972656 1.53516,2.507812 0.53906,1.523438 0.53906,3.949218 z m -2.36719,-0.503906 q 0,-1.816406 -0.375,-2.917969 -0.375,-1.101562 -1.03125,-1.710937 -0.55078,-0.527344 -1.18359,-0.75 -0.63281,-0.234375 -1.37109,-0.234375 -1.6875,0 -2.67188,1.054687 -0.97266,1.054688 -0.97266,2.964844 0,1.113281 0.31641,1.816406 0.31641,0.703125 1.06641,1.230469 0.52734,0.363281 1.16015,0.492188 0.63282,0.117187 1.40625,0.117187 0.91407,0 1.85157,-0.246094 0.9375,-0.246093 1.75781,-0.714843 0.0117,-0.246094 0.0234,-0.480469 0.0234,-0.246094 0.0234,-0.621094 z"
         id="path66701" />
      <path
         d="m 188.95703,-12.818359 q 0,2.660156 -1.75781,4.3476559 -1.7461,1.6757812 -4.28906,1.6757812 -1.28907,0 -2.34375,-0.3984375 -1.05469,-0.3984375 -1.86329,-1.1835937 -1.00781,-0.9726563 -1.55859,-2.5781249 -0.53906,-1.605469 -0.53906,-3.867188 0,-2.320312 0.49219,-4.113281 0.5039,-1.792969 1.59375,-3.1875 1.03125,-1.324219 2.66015,-2.0625 1.62891,-0.75 3.79688,-0.75 0.6914,0 1.16015,0.05859 0.46875,0.05859 0.94922,0.210937 v 2.238282 h -0.11719 q -0.32812,-0.175782 -0.99609,-0.328125 -0.65625,-0.164063 -1.34766,-0.164063 -2.51953,0 -4.01953,1.582031 -1.5,1.570313 -1.74609,4.253907 0.98437,-0.597657 1.93359,-0.902344 0.96094,-0.316406 2.21485,-0.316406 1.11328,0 1.95703,0.210937 0.85547,0.199219 1.74609,0.820313 1.03125,0.714843 1.54688,1.804687 0.52734,1.089844 0.52734,2.648438 z m -2.37891,0.09375 q 0,-1.089844 -0.32812,-1.804688 -0.31641,-0.714844 -1.05469,-1.242187 -0.53906,-0.375 -1.19531,-0.492188 -0.65625,-0.117187 -1.37109,-0.117187 -0.9961,0 -1.85157,0.234375 -0.85547,0.234375 -1.75781,0.726562 -0.0234,0.257813 -0.0352,0.503906 -0.0117,0.234375 -0.0117,0.597657 0,1.851562 0.375,2.929687 0.38671,1.066406 1.05468,1.6875001 0.53907,0.515625 1.16016,0.7617188 0.63281,0.234375 1.37109,0.234375 1.69922,0 2.67188,-1.03125 0.97265,-1.0429689 0.97265,-2.9882809 z"
         id="path66703" />
    </g>
    <g
       class="fill-foreground"
       aria-label="64"
       id="text4562-9-3"
       style="font-size:24px;line-height:1.25;stroke-width:0.5"
       transform="translate(-3.6194923e-5,4.999998)">
      <path
         d="m 123.46484,-12.830079 q 0,2.660156 -1.75781,4.3476562 -1.74609,1.6757812 -4.28906,1.6757812 -1.28906,0 -2.34375,-0.3984375 -1.05469,-0.3984375 -1.86328,-1.1835937 -1.00781,-0.9726563 -1.5586,-2.5781252 -0.53906,-1.605469 -0.53906,-3.867187 0,-2.320313 0.49219,-4.113282 0.50391,-1.792968 1.59375,-3.1875 1.03125,-1.324218 2.66016,-2.0625 1.6289,-0.75 3.79687,-0.75 0.69141,0 1.16016,0.05859 0.46875,0.05859 0.94922,0.210938 v 2.238281 h -0.11719 q -0.32813,-0.175781 -0.9961,-0.328125 -0.65625,-0.164063 -1.34765,-0.164063 -2.51953,0 -4.01953,1.582032 -1.5,1.570312 -1.7461,4.253906 0.98438,-0.597656 1.9336,-0.902344 0.96093,-0.316406 2.21484,-0.316406 1.11328,0 1.95703,0.210937 0.85547,0.199219 1.7461,0.820313 1.03125,0.714844 1.54687,1.804687 0.52734,1.089844 0.52734,2.648438 z m -2.3789,0.09375 q 0,-1.089844 -0.32813,-1.804688 -0.3164,-0.714843 -1.05468,-1.242187 -0.53907,-0.375 -1.19532,-0.492188 -0.65625,-0.117187 -1.37109,-0.117187 -0.99609,0 -1.85156,0.234375 -0.85547,0.234375 -1.75782,0.726562 -0.0234,0.257813 -0.0352,0.503907 -0.0117,0.234375 -0.0117,0.597656 0,1.851562 0.375,2.929687 0.38672,1.066407 1.05469,1.6875004 0.53906,0.515625 1.16015,0.7617188 0.63282,0.234375 1.3711,0.234375 1.69922,0 2.67187,-1.03125 0.97266,-1.0429692 0.97266,-2.9882812 z"
         id="path66706" />
      <path
         d="m 138.88672,-12.080079 h -2.58985 v 4.9101562 h -2.25 v -4.9101562 h -8.35546 v -2.695313 l 8.44921,-9.84375 h 2.15625 v 10.664063 h 2.58985 z m -4.83985,-1.875 v -7.875 l -6.76171,7.875 z"
         id="path66708" />
    </g>
    <g
       class="fill-foreground"
       aria-label="32"
       id="text4562-9-98"
       style="font-size:24px;line-height:1.25;stroke-width:0.5"
       transform="translate(-3.6194923e-5,4.999998)">
      <path
         d="m 71.695312,-15.554688 q 0.5625,0.503907 0.925782,1.265625 0.363281,0.761719 0.363281,1.96875 0,1.195313 -0.433594,2.191407 -0.433594,0.9960935 -1.21875,1.7343747 -0.878906,0.8203126 -2.074219,1.2187501 -1.183593,0.3867187 -2.601562,0.3867187 -1.453125,0 -2.859375,-0.3515625 -1.40625,-0.3398437 -2.308594,-0.75 v -2.449219 h 0.175781 q 0.996094,0.6562502 2.34375,1.089844 1.347657,0.4335937 2.601563,0.4335937 0.738281,0 1.570312,-0.2460937 0.832032,-0.2460938 1.347657,-0.7265625 0.539062,-0.5156255 0.796875,-1.1367185 0.269531,-0.621094 0.269531,-1.570313 0,-0.9375 -0.304688,-1.546875 -0.292968,-0.621094 -0.820312,-0.972656 -0.527344,-0.363281 -1.277344,-0.492188 -0.75,-0.140625 -1.617187,-0.140625 h -1.054688 v -1.945312 h 0.820313 q 1.78125,0 2.835937,-0.738281 1.066406,-0.75 1.066406,-2.179688 0,-0.632812 -0.269531,-1.101562 -0.269531,-0.480469 -0.75,-0.785156 -0.503906,-0.304688 -1.078125,-0.421875 -0.574219,-0.117188 -1.300781,-0.117188 -1.113281,0 -2.367188,0.398438 -1.253906,0.398437 -2.367187,1.125 h -0.117188 v -2.449219 q 0.832032,-0.410156 2.214844,-0.75 1.394531,-0.351563 2.695313,-0.351563 1.277343,0 2.25,0.234375 0.972656,0.234375 1.757812,0.75 0.84375,0.5625 1.277344,1.359375 0.433594,0.796875 0.433594,1.863282 0,1.453125 -1.03125,2.542968 -1.019532,1.078125 -2.414063,1.359375 v 0.164063 q 0.5625,0.09375 1.289063,0.398437 0.726562,0.292969 1.230468,0.738281 z"
         id="path66711" />
      <path
         d="m 88.511719,-7.1523437 h -11.8125 v -2.4492188 q 1.230468,-1.0546875 2.460937,-2.1093755 1.242188,-1.054687 2.308594,-2.097656 2.25,-2.179687 3.082031,-3.457031 0.832031,-1.289062 0.832031,-2.777344 0,-1.359375 -0.902343,-2.121093 -0.890625,-0.773438 -2.496094,-0.773438 -1.066406,0 -2.308594,0.375 -1.242187,0.375 -2.425781,1.148438 H 77.132812 V -23.875 q 0.832032,-0.410156 2.214844,-0.75 1.394531,-0.339844 2.695313,-0.339844 2.683593,0 4.207031,1.300782 1.523437,1.289062 1.523437,3.503906 0,0.996094 -0.257812,1.863281 -0.246094,0.855469 -0.738281,1.628906 -0.457032,0.726563 -1.078125,1.429688 -0.609375,0.703125 -1.488282,1.558593 -1.253906,1.230469 -2.589843,2.390625 -1.335938,1.148438 -2.496094,2.132813 h 9.386719 z"
         id="path66713" />
    </g>
    <g
       class="fill-foreground"
       aria-label="Gamma"
       id="text4562-2"
       style="font-size:24px;line-height:1.25;stroke-width:0.5"
       transform="translate(-3.6194923e-5,4.999998)">
      <path
         d="m -82.094421,220.41211 q -1.429688,0.65625 -3.128907,1.14844 -1.6875,0.48047 -3.269531,0.48047 -2.039062,0 -3.738281,-0.5625 -1.699219,-0.5625 -2.894531,-1.6875 -1.207032,-1.13672 -1.863282,-2.83594 -0.65625,-1.71094 -0.65625,-3.9961 0,-4.18359 2.4375,-6.59765 2.449219,-2.42578 6.714844,-2.42578 1.488281,0 3.035156,0.36328 1.558594,0.35156 3.351563,1.20703 v 2.75391 h -0.210938 q -0.363281,-0.28125 -1.054687,-0.73829 -0.691406,-0.45703 -1.359375,-0.76171 -0.808594,-0.36329 -1.839844,-0.59766 -1.019531,-0.24609 -2.320312,-0.24609 -2.929688,0 -4.640625,1.88671 -1.699219,1.875 -1.699219,5.08594 0,3.38672 1.78125,5.27344 1.78125,1.875 4.851562,1.875 1.125,0 2.238282,-0.22266 1.125,-0.22265 1.96875,-0.57422 v -4.27734 h -4.675782 v -2.03906 h 6.972657 z"
         id="path66729" />
      <path
         d="m -68.04364,221.70117 h -2.191406 v -1.39453 q -0.292969,0.19922 -0.796875,0.5625 -0.492188,0.35156 -0.960938,0.5625 -0.550781,0.26953 -1.265625,0.44531 -0.714844,0.1875 -1.675781,0.1875 -1.769531,0 -3,-1.17187 -1.230469,-1.17188 -1.230469,-2.98828 0,-1.48828 0.632813,-2.40235 0.644531,-0.92578 1.828125,-1.45312 1.195312,-0.52735 2.871093,-0.71485 1.675782,-0.1875 3.597657,-0.28125 v -0.33984 q 0,-0.75 -0.269532,-1.24219 -0.257812,-0.49218 -0.75,-0.77343 -0.46875,-0.26954 -1.125,-0.36329 -0.65625,-0.0937 -1.371093,-0.0937 -0.867188,0 -1.933594,0.23438 -1.066406,0.22266 -2.203125,0.65625 h -0.117188 v -2.23828 q 0.644532,-0.17578 1.863282,-0.38672 1.21875,-0.21094 2.402343,-0.21094 1.382813,0 2.402344,0.23438 1.03125,0.22265 1.78125,0.77343 0.738281,0.53907 1.125,1.39454 0.386719,0.85546 0.386719,2.12109 z m -2.191406,-3.22265 v -3.64454 q -1.007813,0.0586 -2.378907,0.17579 -1.359375,0.11718 -2.15625,0.33984 -0.949218,0.26953 -1.535156,0.84375 -0.585937,0.5625 -0.585937,1.55859 0,1.125 0.679687,1.69922 0.679688,0.5625 2.074219,0.5625 1.160156,0 2.121094,-0.44531 0.960937,-0.45703 1.78125,-1.08984 z"
         id="path66731" />
      <path
         d="m -44.676453,221.70117 h -2.203125 v -7.45312 q 0,-0.84375 -0.08203,-1.62891 -0.07031,-0.78516 -0.316406,-1.25391 -0.269531,-0.5039 -0.773438,-0.76171 -0.503906,-0.25782 -1.453125,-0.25782 -0.925781,0 -1.851562,0.46875 -0.925781,0.45703 -1.851563,1.17188 0.03516,0.26953 0.05859,0.63281 0.02344,0.35156 0.02344,0.70313 v 8.3789 h -2.203125 v -7.45312 q 0,-0.86719 -0.08203,-1.64063 -0.07031,-0.78515 -0.316406,-1.2539 -0.269531,-0.50391 -0.773437,-0.75 -0.503907,-0.25782 -1.453125,-0.25782 -0.902344,0 -1.816407,0.44532 -0.902343,0.44531 -1.804687,1.13671 v 9.77344 h -2.203125 v -13.08984 h 2.203125 v 1.45312 q 1.03125,-0.85547 2.050781,-1.33593 1.03125,-0.48047 2.191406,-0.48047 1.335938,0 2.261719,0.5625 0.9375,0.5625 1.394531,1.55859 1.335938,-1.125 2.4375,-1.61719 1.101563,-0.5039 2.355469,-0.5039 2.15625,0 3.175781,1.3125 1.03125,1.30078 1.03125,3.64453 z"
         id="path66733" />
      <path
         d="m -21.332703,221.70117 h -2.203125 v -7.45312 q 0,-0.84375 -0.08203,-1.62891 -0.07031,-0.78516 -0.316406,-1.25391 -0.269531,-0.5039 -0.773438,-0.76171 -0.503906,-0.25782 -1.453125,-0.25782 -0.925781,0 -1.851562,0.46875 -0.925781,0.45703 -1.851563,1.17188 0.03516,0.26953 0.05859,0.63281 0.02344,0.35156 0.02344,0.70313 v 8.3789 h -2.203125 v -7.45312 q 0,-0.86719 -0.08203,-1.64063 -0.07031,-0.78515 -0.316406,-1.2539 -0.269531,-0.50391 -0.773437,-0.75 -0.503907,-0.25782 -1.453125,-0.25782 -0.902344,0 -1.816407,0.44532 -0.902343,0.44531 -1.804687,1.13671 v 9.77344 h -2.203125 v -13.08984 h 2.203125 v 1.45312 q 1.03125,-0.85547 2.050781,-1.33593 1.03125,-0.48047 2.191406,-0.48047 1.335938,0 2.261719,0.5625 0.9375,0.5625 1.394531,1.55859 1.335938,-1.125 2.4375,-1.61719 1.101563,-0.5039 2.355469,-0.5039 2.15625,0 3.175781,1.3125 1.03125,1.30078 1.03125,3.64453 z"
         id="path66735" />
      <path
         d="m -6.9186401,221.70117 h -2.1914063 v -1.39453 q -0.2929687,0.19922 -0.796875,0.5625 -0.4921876,0.35156 -0.9609376,0.5625 -0.550781,0.26953 -1.265625,0.44531 -0.714844,0.1875 -1.675781,0.1875 -1.769531,0 -3,-1.17187 -1.230469,-1.17188 -1.230469,-2.98828 0,-1.48828 0.632813,-2.40235 0.644531,-0.92578 1.828125,-1.45312 1.195312,-0.52735 2.871093,-0.71485 1.675782,-0.1875 3.5976566,-0.28125 v -0.33984 q 0,-0.75 -0.2695312,-1.24219 -0.2578125,-0.49218 -0.7500004,-0.77343 -0.46875,-0.26954 -1.125,-0.36329 -0.65625,-0.0937 -1.371093,-0.0937 -0.867188,0 -1.933594,0.23438 -1.066406,0.22266 -2.203125,0.65625 h -0.117188 v -2.23828 q 0.644532,-0.17578 1.863282,-0.38672 1.21875,-0.21094 2.402343,-0.21094 1.382813,0 2.402344,0.23438 1.0312501,0.22265 1.7812501,0.77343 0.7382813,0.53907 1.125,1.39454 0.3867188,0.85546 0.3867188,2.12109 z m -2.1914063,-3.22265 v -3.64454 q -1.0078126,0.0586 -2.3789066,0.17579 -1.359375,0.11718 -2.15625,0.33984 -0.949218,0.26953 -1.535156,0.84375 -0.585937,0.5625 -0.585937,1.55859 0,1.125 0.679687,1.69922 0.679688,0.5625 2.074219,0.5625 1.160156,0 2.121094,-0.44531 0.9609371,-0.45703 1.7812496,-1.08984 z"
         id="path66737" />
    </g>
  </g>
</svg>
